<svg width="711" height="390" viewBox="0 0 711 390" fill="none" xmlns="http://www.w3.org/2000/svg">
<rect x="2" y="2" width="707" height="386" fill="url(#paint0_linear_623_200)"/>
<rect x="1" y="1" width="709" height="388" stroke="white" stroke-opacity="0.5" stroke-width="2"/>
<path d="M187.38 197.44V219.44C184.5 221.52 181.42 223.08 178.14 224.12C174.887 225.133 171.313 225.64 167.42 225.64C162.807 225.64 158.647 224.933 154.94 223.52C151.233 222.08 148.06 220.08 145.42 217.52C142.807 214.933 140.793 211.84 139.38 208.24C137.967 204.64 137.26 200.68 137.26 196.36C137.26 191.987 137.94 188 139.3 184.4C140.687 180.8 142.647 177.72 145.18 175.16C147.713 172.573 150.793 170.573 154.42 169.16C158.047 167.747 162.1 167.04 166.58 167.04C168.847 167.04 170.953 167.213 172.9 167.56C174.847 167.88 176.647 168.36 178.3 169C179.953 169.613 181.487 170.373 182.9 171.28C184.313 172.16 185.633 173.16 186.86 174.28L184.66 177.8C184.313 178.333 183.86 178.68 183.3 178.84C182.767 178.973 182.167 178.84 181.5 178.44C180.86 178.067 180.127 177.613 179.3 177.08C178.473 176.547 177.46 176.04 176.26 175.56C175.087 175.053 173.687 174.627 172.06 174.28C170.46 173.933 168.553 173.76 166.34 173.76C163.113 173.76 160.193 174.293 157.58 175.36C154.967 176.4 152.74 177.907 150.9 179.88C149.06 181.827 147.647 184.2 146.66 187C145.673 189.773 145.18 192.893 145.18 196.36C145.18 199.96 145.687 203.187 146.7 206.04C147.74 208.867 149.207 211.28 151.1 213.28C153.02 215.253 155.34 216.76 158.06 217.8C160.78 218.84 163.833 219.36 167.22 219.36C169.887 219.36 172.247 219.067 174.3 218.48C176.38 217.867 178.407 217.027 180.38 215.96V203.36H171.46C170.953 203.36 170.54 203.213 170.22 202.92C169.927 202.627 169.78 202.267 169.78 201.84V197.44H187.38ZM211.018 225H203.258V167.68H211.018V225ZM237.439 174V194.04H260.999V200.36H237.439V225H229.679V167.68H264.999V174H237.439ZM317.674 174.2H299.114V225H291.394V174.2H272.794V167.68H317.674V174.2ZM392.466 213.16C392.893 213.16 393.266 213.333 393.586 213.68L396.666 217C394.32 219.72 391.466 221.84 388.106 223.36C384.773 224.88 380.733 225.64 375.986 225.64C371.88 225.64 368.146 224.933 364.786 223.52C361.426 222.08 358.56 220.08 356.186 217.52C353.813 214.933 351.973 211.84 350.666 208.24C349.36 204.64 348.706 200.68 348.706 196.36C348.706 192.04 349.386 188.08 350.746 184.48C352.106 180.88 354.013 177.787 356.466 175.2C358.946 172.613 361.906 170.613 365.346 169.2C368.786 167.76 372.586 167.04 376.746 167.04C380.826 167.04 384.426 167.693 387.546 169C390.666 170.307 393.413 172.08 395.786 174.32L393.226 177.88C393.066 178.147 392.853 178.373 392.586 178.56C392.346 178.72 392.013 178.8 391.586 178.8C391.106 178.8 390.52 178.547 389.826 178.04C389.133 177.507 388.226 176.92 387.106 176.28C385.986 175.64 384.586 175.067 382.906 174.56C381.226 174.027 379.16 173.76 376.706 173.76C373.746 173.76 371.04 174.28 368.586 175.32C366.133 176.333 364.013 177.813 362.226 179.76C360.466 181.707 359.093 184.08 358.106 186.88C357.12 189.68 356.626 192.84 356.626 196.36C356.626 199.933 357.133 203.12 358.146 205.92C359.186 208.72 360.586 211.093 362.346 213.04C364.133 214.96 366.226 216.427 368.626 217.44C371.053 218.453 373.666 218.96 376.466 218.96C378.173 218.96 379.706 218.867 381.066 218.68C382.453 218.467 383.72 218.147 384.866 217.72C386.04 217.293 387.12 216.76 388.106 216.12C389.12 215.453 390.12 214.667 391.106 213.76C391.56 213.36 392.013 213.16 392.466 213.16ZM440.104 203.72L431.104 180.4C430.837 179.707 430.557 178.907 430.264 178C429.97 177.067 429.69 176.08 429.424 175.04C428.864 177.2 428.29 179 427.704 180.44L418.704 203.72H440.104ZM456.264 225H450.264C449.57 225 449.01 224.827 448.584 224.48C448.157 224.133 447.837 223.693 447.624 223.16L442.264 209.32H416.544L411.184 223.16C411.024 223.64 410.717 224.067 410.264 224.44C409.81 224.813 409.25 225 408.584 225H402.584L425.504 167.68H433.344L456.264 225ZM483.684 195.44C485.924 195.44 487.898 195.173 489.604 194.64C491.338 194.08 492.778 193.307 493.924 192.32C495.098 191.307 495.978 190.107 496.564 188.72C497.151 187.333 497.444 185.8 497.444 184.12C497.444 180.707 496.324 178.133 494.084 176.4C491.844 174.667 488.484 173.8 484.004 173.8H475.524V195.44H483.684ZM510.164 225H503.284C501.871 225 500.831 224.453 500.164 223.36L485.284 202.88C484.831 202.24 484.338 201.787 483.804 201.52C483.298 201.227 482.498 201.08 481.404 201.08H475.524V225H467.804V167.68H484.004C487.631 167.68 490.764 168.053 493.404 168.8C496.044 169.52 498.218 170.573 499.924 171.96C501.658 173.347 502.938 175.027 503.764 177C504.591 178.947 505.004 181.133 505.004 183.56C505.004 185.587 504.684 187.48 504.044 189.24C503.404 191 502.471 192.587 501.244 194C500.044 195.387 498.564 196.573 496.804 197.56C495.071 198.547 493.098 199.293 490.884 199.8C491.871 200.36 492.724 201.173 493.444 202.24L510.164 225ZM571.641 196.36C571.641 200.653 570.961 204.56 569.601 208.08C568.241 211.6 566.321 214.613 563.841 217.12C561.361 219.627 558.374 221.573 554.881 222.96C551.414 224.32 547.574 225 543.361 225H521.961V167.68H543.361C547.574 167.68 551.414 168.373 554.881 169.76C558.374 171.12 561.361 173.067 563.841 175.6C566.321 178.107 568.241 181.12 569.601 184.64C570.961 188.16 571.641 192.067 571.641 196.36ZM563.681 196.36C563.681 192.84 563.201 189.693 562.241 186.92C561.281 184.147 559.921 181.8 558.161 179.88C556.401 177.96 554.267 176.493 551.761 175.48C549.254 174.467 546.454 173.96 543.361 173.96H529.721V218.72H543.361C546.454 218.72 549.254 218.213 551.761 217.2C554.267 216.187 556.401 214.733 558.161 212.84C559.921 210.92 561.281 208.573 562.241 205.8C563.201 203.027 563.681 199.88 563.681 196.36Z" fill="white" fill-opacity="0.2"/>
<defs>
<linearGradient id="paint0_linear_623_200" x1="709" y1="1.99998" x2="161.322" y2="547.854" gradientUnits="userSpaceOnUse">
<stop stop-color="#C75531" stop-opacity="0.5"/>
<stop offset="1" stop-color="#C73D31" stop-opacity="0.6"/>
</linearGradient>
</defs>
</svg>
