<svg width="109" height="109" viewBox="0 0 109 109" fill="none" xmlns="http://www.w3.org/2000/svg">
<path d="M109 54.5C109 84.5995 84.5995 109 54.5 109C24.4005 109 0 84.5995 0 54.5C0 24.4005 24.4005 0 54.5 0C84.5995 0 109 24.4005 109 54.5ZM10.9 54.5C10.9 78.5796 30.4204 98.1 54.5 98.1C78.5796 98.1 98.1 78.5796 98.1 54.5C98.1 30.4204 78.5796 10.9 54.5 10.9C30.4204 10.9 10.9 30.4204 10.9 54.5Z" fill="none"/>
<path d="M5.63397 58.7443C2.63531 59.0047 -0.035362 56.7814 0.0048619 53.7717C0.0799875 48.1506 1.02457 42.5636 2.81479 37.2116C5.18254 30.133 8.97909 23.6162 13.9691 18.0652C18.959 12.5143 25.036 8.04747 31.8233 4.94176C38.6106 1.83606 45.9635 0.157642 53.4262 0.0105794C60.8889 -0.136484 68.3022 1.25094 75.2066 4.08683C82.111 6.92272 88.3592 11.1466 93.564 16.4967C98.7688 21.8468 102.819 28.2089 105.464 35.1887C107.464 40.4661 108.628 46.0115 108.924 51.6253C109.083 54.631 106.502 56.9579 103.495 56.8157C100.489 56.6736 98.2021 54.1134 97.9682 51.1126C97.6472 46.9935 96.7416 42.9317 95.2712 39.051C93.1553 33.4671 89.9151 28.3774 85.7512 24.0974C81.5874 19.8173 76.5888 16.4382 71.0653 14.1695C65.5417 11.9007 59.6111 10.7908 53.641 10.9085C47.6708 11.0261 41.7885 12.3688 36.3587 14.8534C30.9288 17.338 26.0672 20.9114 22.0752 25.3522C18.0833 29.793 15.046 35.0064 13.1518 40.6693C11.8354 44.6049 11.0905 48.6993 10.9321 52.8278C10.8166 55.8355 8.63263 58.4838 5.63397 58.7443Z" fill="url(#paint0_linear_724_2)"/>
<defs>
<linearGradient id="paint0_linear_724_2" x1="104.5" y1="49.5" x2="-1.14787" y2="23.5269" gradientUnits="userSpaceOnUse">
<stop stop-color="#C73D31"/>
<stop offset="1" stop-color="#C75531" stop-opacity="0.77"/>
</linearGradient>
</defs>
</svg>
